<?xml version="1.0" standalone="no"?><!DOCTYPE svg PUBLIC "-//W3C//DTD SVG 1.1//EN" "http://www.w3.org/Graphics/SVG/1.1/DTD/svg11.dtd"><svg t="1541749034924" class="icon" style="" viewBox="0 0 1024 1024" version="1.1" xmlns="http://www.w3.org/2000/svg" p-id="15589" xmlns:xlink="http://www.w3.org/1999/xlink" width="32" height="32"><defs><style type="text/css"></style></defs><path d="M582.4 147.2 140.8 588.8 96 832l243.2-44.8 441.6-441.6c25.6-25.6 25.6-70.4 0-96l-102.4-102.4C652.8 121.6 608 121.6 582.4 147.2zM716.8 332.8 659.2 384 544 268.8l51.2-51.2c19.2-19.2 51.2-19.2 76.8 0L710.4 256C736 275.2 736 313.6 716.8 332.8zM211.2 601.6l294.4-294.4 115.2 115.2-294.4 294.4-153.6 32L211.2 601.6zM928 896l-832 0C76.8 896 64 883.2 64 864l0 0C64 844.8 76.8 832 96 832l832 0c19.2 0 32 12.8 32 32l0 0C960 883.2 947.2 896 928 896z" p-id="15590" fill="#a4a6a7"></path></svg>