<svg width="126" height="126" xmlns="http://www.w3.org/2000/svg">
 <!-- Created with Method Draw - http://github.com/duopixel/Method-Draw/ -->

 <g>
  <title>Layer 1</title>
  <defs>
   <style type="text/css"/>
  </defs>
  <g stroke="null" id="svg_5">
   <path stroke="null" stroke-width="0" id="svg_4" fill="#a4a6a7" d="m71.704148,3.461306l-60.871469,71.467899l-6.175366,39.359133l33.523418,-7.250367l60.871469,-71.467899c3.528781,-4.143067 3.528781,-11.393433 0,-15.5365l-14.115123,-16.572266c-3.528781,-4.143067 -9.704147,-4.143067 -13.232928,0zm18.526099,30.037233l-7.939757,8.286133l-15.879514,-18.6438l7.057562,-8.286133c2.646586,-3.1073 7.057562,-3.1073 10.586342,0l5.293171,6.2146c3.528781,3.1073 3.528781,9.3219 0.882195,12.4292zm-69.693421,43.502199l40.580979,-47.645266l15.879514,18.6438l-40.580979,47.645266l-21.172685,5.178833l5.293171,-23.822633zm98.805863,47.645266l-114.685376,0c-2.646586,0 -4.410976,-2.071533 -4.410976,-5.178833l0,0c0,-3.1073 1.76439,-5.178833 4.410976,-5.178833l114.685376,0c2.646586,0 4.410976,2.071533 4.410976,5.178833l0,0c0,3.1073 -1.76439,5.178833 -4.410976,5.178833z"/>
  </g>
 </g>
</svg>