<?xml version="1.0" standalone="no"?><!DOCTYPE svg PUBLIC "-//W3C//DTD SVG 1.1//EN" "http://www.w3.org/Graphics/SVG/1.1/DTD/svg11.dtd"><svg t="1541748989880" class="icon" style="" viewBox="0 0 1024 1024" version="1.1" xmlns="http://www.w3.org/2000/svg" p-id="2065" xmlns:xlink="http://www.w3.org/1999/xlink" width="32" height="32"><defs><style type="text/css"></style></defs><path d="M811.6 264.1H378.2c-19.8 0-36-16.2-36-36s16.2-36 36-36h433.5c19.8 0 36 16.2 36 36-0.1 19.8-16.3 36-36.1 36zM811.6 522.1H378.2c-19.8 0-36-16.2-36-36s16.2-36 36-36h433.5c19.8 0 36 16.2 36 36-0.1 19.8-16.3 36-36.1 36zM811.6 780.1H378.2c-19.8 0-36-16.2-36-36s16.2-36 36-36h433.5c19.8 0 36 16.2 36 36-0.1 19.8-16.3 36-36.1 36z" p-id="2066" fill="#a4a6a7"></path><path d="M210.2 229m-37.9 0a37.9 37.9 0 1 0 75.8 0 37.9 37.9 0 1 0-75.8 0Z" p-id="2067" fill="#a4a6a7"></path><path d="M210.2 487m-37.9 0a37.9 37.9 0 1 0 75.8 0 37.9 37.9 0 1 0-75.8 0Z" p-id="2068" fill="#a4a6a7"></path><path d="M210.2 745m-37.9 0a37.9 37.9 0 1 0 75.8 0 37.9 37.9 0 1 0-75.8 0Z" p-id="2069" fill="#a4a6a7"></path></svg>