<?xml version="1.0" standalone="no"?><!DOCTYPE svg PUBLIC "-//W3C//DTD SVG 1.1//EN" "http://www.w3.org/Graphics/SVG/1.1/DTD/svg11.dtd"><svg t="1543462819503" class="icon" style="" viewBox="0 0 1024 1024" version="1.1" xmlns="http://www.w3.org/2000/svg" p-id="1936" xmlns:xlink="http://www.w3.org/1999/xlink" width="32" height="32"><defs><style type="text/css"></style></defs><path d="M928.67 206.44H534.14a55.57 55.57 0 0 1-27.56-7.32L350.54 110a111.36 111.36 0 0 0-55.12-14.65H95.33A83.42 83.42 0 0 0 12 178.67v666.66a83.42 83.42 0 0 0 83.33 83.33h833.34a83.42 83.42 0 0 0 83.33-83.33V289.78a83.42 83.42 0 0 0-83.33-83.34z m27.78 638.89a27.8 27.8 0 0 1-27.78 27.78H95.33a27.8 27.8 0 0 1-27.78-27.78V428.67h888.89zM67.56 373.11V178.67a27.8 27.8 0 0 1 27.78-27.78h200.08a55.57 55.57 0 0 1 27.58 7.32l156 89.14A111.36 111.36 0 0 0 534.14 262h394.53a27.8 27.8 0 0 1 27.78 27.78v83.33z" p-id="1937" fill="#a4a6a7"></path></svg>