<svg width="126" height="126" xmlns="http://www.w3.org/2000/svg">
 <!-- Created with Method Draw - http://github.com/duopixel/Method-Draw/ -->

 <g>
  <title>Layer 1</title>
  <defs>
   <style type="text/css"/>
  </defs>
  <defs>
   <style type="text/css"/>
  </defs>
  <defs>
   <style type="text/css"/>
  </defs>
  <defs>
   <style type="text/css"/>
  </defs>
  <!-- Created with Method Draw - http://github.com/duopixel/Method-Draw/ -->
  <g stroke="null" id="svg_50">
   <g stroke="null" transform="matrix(1.0181745442342403,0,0,0.9388094430522441,5.13605151091848,4.59183882849779) " id="svg_47">
    <title stroke="null" transform="translate(-5.8571343421936035,0) translate(0,-5.8571343421936035) ">background</title>
    <rect stroke="null" x="-6.857134" y="-6.857134" width="128" height="128" id="svg_45" fill="#fff"/>

   </g>
   <g stroke="null" transform="matrix(1.0181745442342403,0,0,0.9388094430522441,5.13605151091848,4.59183882849779) " id="svg_49">
    <title stroke="null" transform="translate(-5.8571343421936035,0) translate(0,-5.8571343421936035) ">Layer 1</title>
    <defs stroke="null" transform="translate(-5.8571343421936035,0) translate(0,-5.8571343421936035) ">
     <style stroke="null" type="text/css"/>
    </defs>
    <defs stroke="null" transform="translate(-5.8571343421936035,0) translate(0,-5.8571343421936035) ">
     <style stroke="null" type="text/css"/>
    </defs>
    <defs stroke="null" transform="translate(-5.8571343421936035,0) translate(0,-5.8571343421936035) ">
     <style stroke="null" type="text/css"/>
    </defs>
    <g stroke="null" id="svg_39">
     <path stroke="null" d="m109.123527,13.440769l-76.292996,0c-3.485467,0 -6.337212,-3.303095 -6.337212,-7.340211s2.851746,-7.340211 6.337212,-7.340211l76.310599,0c3.485467,0 6.337212,3.303095 6.337212,7.340211c-0.017603,4.037116 -2.869349,7.340211 -6.354816,7.340211l0.000001,0zm0,52.604843l-76.292996,0c-3.485467,0 -6.337212,-3.303095 -6.337212,-7.340211s2.851746,-7.340211 6.337212,-7.340211l76.310599,0c3.485467,0 6.337212,3.303095 6.337212,7.340211c-0.017603,4.037116 -2.869349,7.340211 -6.354816,7.340211l0.000001,0zm0,52.604843l-76.292996,0c-3.485467,0 -6.337212,-3.303095 -6.337212,-7.340211s2.851746,-7.340211 6.337212,-7.340211l76.310599,0c3.485467,0 6.337212,3.303095 6.337212,7.340211c-0.017603,4.037116 -2.869349,7.340211 -6.354816,7.340211l0.000001,0z" fill="#a4a6a7" id="svg_43"/>
     <path stroke="null" d="m3.256873,6.284063m-6.671676,0a6.671676,7.727611 0 1 0 13.343353,0a6.671676,7.727611 0 1 0 -13.343353,0z" fill="#a4a6a7" id="svg_42"/>
     <path stroke="null" d="m3.256873,58.888906m-6.671676,0a6.671676,7.727611 0 1 0 13.343353,0a6.671676,7.727611 0 1 0 -13.343353,0z" fill="#a4a6a7" id="svg_41"/>
     <path stroke="null" d="m3.256873,111.493748m-6.671676,0a6.671676,7.727611 0 1 0 13.343353,0a6.671676,7.727611 0 1 0 -13.343353,0z" fill="#a4a6a7" id="svg_40"/>
    </g>
   </g>
  </g>
 </g>
</svg>