<svg width="126" height="126" xmlns="http://www.w3.org/2000/svg">
 <!-- Created with Method Draw - http://github.com/duopixel/Method-Draw/ -->

 <g>
  <title>Layer 1</title>
  <defs>
   <style type="text/css"/>
  </defs>
  <defs>
   <style type="text/css"/>
  </defs>
  <defs>
   <style type="text/css"/>
  </defs>
  <defs>
   <style type="text/css"/>
  </defs>
  <g stroke="null" id="svg_29">
   <path stroke="null" id="svg_28" fill="#a4a6a7" d="m112.290958,102.858843l11.918449,13.657672a4.45383,5.107581 0 0 1 -6.306623,7.232335l-11.909541,-13.667887a40.084468,45.96823 0 1 1 6.297715,-7.22212zm-107.034438,-100.200527l106.891915,0a4.45383,5.107581 0 1 1 0,10.215162l-106.891915,0a4.45383,5.107581 0 0 1 0,-10.215162zm0,51.075811l26.722979,0a4.45383,5.107581 0 0 1 0,10.215162l-26.722979,0a4.45383,5.107581 0 0 1 0,-10.215162zm0,51.075811l31.176809,0a4.45383,5.107581 0 1 1 0,10.215162l-31.176809,0a4.45383,5.107581 0 1 1 0,-10.215162zm75.715106,5.107581a31.176809,35.753068 0 1 0 0,-71.506136a31.176809,35.753068 0 0 0 0,71.506136z"/>
  </g>
 </g>
</svg>