<?xml version="1.0" standalone="no"?><!DOCTYPE svg PUBLIC "-//W3C//DTD SVG 1.1//EN" "http://www.w3.org/Graphics/SVG/1.1/DTD/svg11.dtd"><svg t="1541748422636" class="icon" style="" viewBox="0 0 1024 1024" version="1.1" xmlns="http://www.w3.org/2000/svg" p-id="14473" xmlns:xlink="http://www.w3.org/1999/xlink" width="32" height="32"><defs><style type="text/css"></style></defs><path d="M 1002.37 449.766 c -3.87413 -21.4955 -24.6016 -43.3835 -46.1056 -48.2304 l -16.0768 -3.67787 c -37.7685 -11.4261 -71.2875 -36.4203 -92.5952 -73.2245 c -21.3077 -36.992 -26.3424 -79.0272 -17.0411 -117.572 l 0 0 l 5.03467 -15.1125 c 6.39147 -20.9237 -1.93707 -49.7835 -18.7904 -64.1195 c 0 0 -15.104 -12.7829 -57.728 -37.3845 c -42.6155 -24.4053 -61.0219 -31.1893 -61.0219 -31.1893 C 677.333 51.7035 648.277 58.8715 633.173 74.9483 l -11.2384 12.0064 c -28.6635 27.1189 -67.2085 43.5883 -109.833 43.5883 c -42.6155 0 -81.5531 -16.6656 -110.217 -43.9808 l -10.8459 -11.6139 c -14.9163 -16.0768 -44.16 -23.2533 -64.8875 -15.6928 c 0 0 -18.5941 6.784 -61.2096 31.1893 c -42.6155 24.7979 -57.5317 37.5808 -57.5317 37.5808 c -16.8533 14.1397 -25.1819 42.8032 -18.7904 63.9232 l 4.64213 15.3003 c 9.10507 38.5536 4.26667 80.3925 -17.0496 117.385 c -21.3077 37.0091 -55.2021 62.1909 -93.1669 73.4123 l -15.4965 3.49013 c -21.3077 4.84693 -42.2315 26.5387 -46.0971 48.2304 c 0 0 -3.49013 19.3792 -3.49013 68.5824 c 0 49.1861 3.49013 68.5653 3.49013 68.5653 c 3.8656 21.7003 24.6016 43.4005 46.0971 48.2304 l 15.104 3.49013 l 0 0 c 37.9733 11.2299 72.064 36.4203 93.3632 73.6 c 21.3163 37.0091 26.3424 79.0443 17.0496 117.581 l 0 0 l -4.4544 14.9163 c -6.39147 20.9237 1.93707 49.792 18.7904 64.1195 c 0 0 15.1125 12.7829 57.7195 37.3931 c 42.624 24.6016 61.0219 31.1893 61.0219 31.1893 c 20.7275 7.54347 49.7835 0.384 64.8875 -15.7013 l 10.6581 -11.4261 c 28.8597 -27.3152 67.6011 -43.9723 110.413 -43.9723 s 81.7493 16.8533 110.413 44.1771 l 0 0 l 10.6581 11.4176 c 14.9163 16.0853 44.16 23.2533 64.8875 15.6928 c 0 0 18.6027 -6.77547 61.2096 -31.1893 c 42.6155 -24.5845 57.5317 -37.3845 57.5317 -37.3845 c 16.8533 -14.1397 25.1819 -42.9995 18.7904 -64.1109 L 830.942 829.44 c -9.10507 -38.3659 -4.25813 -80.1963 17.0496 -117.001 c 21.3163 -37.0005 55.3984 -62.3787 93.3632 -73.6171 l 0 0 l 15.1125 -3.49013 c 21.3077 -4.82987 42.2315 -26.5301 46.1056 -48.2304 c 0 0 3.4816 -19.3707 3.4816 -68.5653 C 1005.86 469.146 1002.37 449.766 1002.37 449.766 L 1002.37 449.766 M 512.102 715.341 c -108.663 0 -197.001 -88.1323 -197.001 -196.992 c 0 -108.672 88.1408 -196.813 197.001 -196.813 c 108.672 0 197.001 88.1408 197.001 197.001 C 708.907 627.209 620.774 715.341 512.102 715.341 L 512.102 715.341 M 512.102 715.341 L 512.102 715.341 Z" fill="#a4a6a7" p-id="14474"></path></svg>