<?xml version="1.0" standalone="no"?><!DOCTYPE svg PUBLIC "-//W3C//DTD SVG 1.1//EN" "http://www.w3.org/Graphics/SVG/1.1/DTD/svg11.dtd"><svg t="1524625486516" class="icon" style="" viewBox="0 0 1024 1024" version="1.1" xmlns="http://www.w3.org/2000/svg" p-id="1172" xmlns:xlink="http://www.w3.org/1999/xlink" width="200" height="200"><defs><style type="text/css"></style></defs><path d="M590.514383 488.040949 952.888054 851.125263C981.253371 879.546168 981.11016 925.804176 952.546629 954.423734 923.783934 983.242895 877.825294 983.196523 849.450322 954.76589L487.076651 591.681576 124.70298 954.76589C96.337663 983.186795 50.170204 983.043365 21.606672 954.423734-7.156023 925.604646-7.109798 879.555896 21.265175 851.125263L383.638845 488.040949 21.265175 124.956635C-7.100143 96.53573-6.956932 50.277722 21.606672 21.658164 50.369368-7.160997 96.328008-7.114625 124.70298 21.316008L487.076651 384.400322 849.450322 21.316008C877.815566-7.104897 923.983025-6.961467 952.546629 21.658164 981.309325 50.477252 981.263026 96.526002 952.888054 124.956635L590.514383 488.040949 590.514383 488.040949Z" p-id="1173" fill="#8a8a8a"></path></svg>