<?xml version="1.0" standalone="no"?><!DOCTYPE svg PUBLIC "-//W3C//DTD SVG 1.1//EN" "http://www.w3.org/Graphics/SVG/1.1/DTD/svg11.dtd"><svg t="1541727396474" class="icon" style="" viewBox="0 0 1340 1024" version="1.1" xmlns="http://www.w3.org/2000/svg" p-id="10350" xmlns:xlink="http://www.w3.org/1999/xlink" width="41.875" height="32"><defs><style type="text/css"></style></defs><path d="M1334.635105 431.95181l-267.394169 543.939317a87.094284 87.094284 0 0 1-71.256051 47.994646H138.960497a30.108641 30.108641 0 0 1-26.685023-47.994646l267.394169-543.939317a87.094284 87.094284 0 0 1 71.256051-47.994645h857.024388a30.108641 30.108641 0 0 1 26.685023 47.994645zM1119.875064 287.967874H322.524018L0 959.892912V63.992861a63.992861 63.992861 0 0 1 63.992861-63.992861h415.953595a63.992861 63.992861 0 0 1 63.992861 63.992861v63.992861h575.935747a63.992861 63.992861 0 0 1 63.992861 63.99286v31.996431a63.992861 63.992861 0 0 1-63.992861 63.992861z" fill="#a4a6a7" p-id="10351"></path></svg>