<?xml version="1.0" standalone="no"?><!DOCTYPE svg PUBLIC "-//W3C//DTD SVG 1.1//EN" "http://www.w3.org/Graphics/SVG/1.1/DTD/svg11.dtd"><svg t="1541727590788" class="icon" style="" viewBox="0 0 1024 1024" version="1.1" xmlns="http://www.w3.org/2000/svg" p-id="11582" xmlns:xlink="http://www.w3.org/1999/xlink" width="32" height="32"><defs><style type="text/css"></style></defs><path d="M678.4 55.466667l-64 0L221.866667 55.466667c-46.933333 0-85.333333 38.4-85.333333 85.333333l0 750.933333c0 46.933333 38.4 85.333333 85.333333 85.333333l584.533333 0c46.933333 0 85.333333-38.4 85.333333-85.333333L891.733333 324.266667l0-42.666667L678.4 55.466667zM844.8 887.466667c0 21.333333-17.066667 42.666667-42.666667 42.666667L221.866667 930.133333c-21.333333 0-42.666667-17.066667-42.666667-42.666667L179.2 136.533333c0-21.333333 17.066667-42.666667 42.666667-42.666667L597.333333 93.866667l0 209.066667c0 21.333333 17.066667 42.666667 42.666667 42.666667l209.066667 0L849.066667 887.466667zM635.733333 302.933333 635.733333 93.866667l21.333333 0 187.733333 209.066667L635.733333 302.933333z" p-id="11583" fill="#a4a6a7"></path></svg>