<?xml version="1.0" standalone="no"?><!DOCTYPE svg PUBLIC "-//W3C//DTD SVG 1.1//EN" "http://www.w3.org/Graphics/SVG/1.1/DTD/svg11.dtd"><svg t="1524636644705" class="icon" style="" viewBox="0 0 1024 1024" version="1.1" xmlns="http://www.w3.org/2000/svg" p-id="4158" xmlns:xlink="http://www.w3.org/1999/xlink" width="200" height="200"><defs><style type="text/css"></style></defs><path d="M49.066667 945.066667c-8.533333 8.533333-6.4 21.333333 0 29.866666 8.533333 8.533333 21.333333 8.533333 29.866666 0l354.133334-352s2.133333 0 2.133333-2.133333v332.8c0 12.8 8.533333 21.333333 21.333333 21.333333s21.333333-8.533333 21.333334-21.333333V554.666667H68.266667c-12.8 0-21.333333 8.533333-21.333334 21.333333s8.533333 21.333333 21.333334 21.333333h332.8s0-2.133333-2.133334 0L49.066667 945.066667zM955.733333 477.866667c12.8 0 21.333333-8.533333 21.333334-21.333334s-8.533333-21.333333-21.333334-21.333333H622.933333s0-2.133333 2.133334-4.266667L974.933333 78.933333c8.533333-8.533333 6.4-21.333333 0-29.866666-8.533333-8.533333-21.333333-8.533333-29.866666-2.133334L595.2 398.933333v2.133334V68.266667c0-12.8-8.533333-21.333333-21.333333-21.333334s-21.333333 8.533333-21.333334 21.333334v409.6h403.2z" fill="#8a8a8a" p-id="4159"></path></svg>